<?xml version="1.0" standalone="no"?>
<!DOCTYPE svg PUBLIC "-//W3C//DTD SVG 20010904//EN"
 "http://www.w3.org/TR/2001/REC-SVG-20010904/DTD/svg10.dtd">
<svg version="1.0" xmlns="http://www.w3.org/2000/svg"
 width="1280.000000pt" height="1280.000000pt" viewBox="0 0 1280.000000 1280.000000"
 preserveAspectRatio="xMidYMid meet">
<g transform="translate(0.000000,1280.000000) scale(0.100000,-0.100000)"
fill="#000000" stroke="none">
<path d="M6325 12776 c-28 -13 -1047 -731 -2265 -1596 -1218 -866 -2604 -1850
-3080 -2188 -476 -338 -882 -630 -902 -649 -22 -22 -45 -59 -59 -96 -22 -59
-22 -60 -4 -113 22 -65 70 -125 122 -150 35 -18 76 -19 593 -24 l555 -5 0
-3330 0 -3330 -330 -5 c-348 -5 -349 -5 -395 -55 l-25 -27 0 -558 0 -558 25
-27 c14 -15 42 -36 62 -46 36 -19 156 -19 5850 -19 l5813 0 39 23 c22 12 49
35 60 50 21 28 21 36 21 576 0 506 -1 549 -18 574 -40 61 -40 62 -402 67
l-330 5 0 3330 0 3330 485 5 c440 5 488 7 521 23 53 27 97 77 119 138 22 60
24 81 11 107 -5 9 -14 31 -21 48 -6 17 -28 47 -48 67 -20 19 -426 311 -902
649 -476 338 -1862 1322 -3079 2188 -1218 865 -2239 1583 -2268 1596 -65 29
-84 29 -148 0z m3930 -8151 l0 -3330 -3785 0 -3785 0 -3 3320 c-1 1826 0 3326
3 3333 3 10 766 12 3787 10 l3783 -3 0 -3330z"/>
<path d="M4790 6945 c-432 -60 -875 -283 -1293 -651 l-47 -42 2 -2021 3 -2021
150 126 c396 330 776 520 1165 580 110 17 363 19 465 5 312 -45 595 -157 900
-355 64 -42 118 -76 121 -76 2 0 4 909 4 2020 l0 2020 -82 53 c-471 303 -935
424 -1388 362z"/>
<path d="M7668 6945 c-278 -38 -611 -168 -880 -344 l-108 -70 0 -2021 c0
-1614 3 -2020 13 -2014 6 5 59 39 117 77 144 94 390 215 540 264 473 157 930
121 1396 -111 223 -111 378 -216 610 -412 67 -57 124 -100 128 -97 3 4 6 912
6 2019 l0 2012 -67 59 c-262 230 -598 437 -863 534 -288 104 -611 142 -892
104z"/>
</g>
</svg>
